<?xml version="1.0" encoding="utf-8"?>
<!-- Generator: Adobe Illustrator 19.0.0, SVG Export Plug-In . SVG Version: 6.00 Build 0)  -->
<svg version="1.1" id="Слой_1" xmlns="http://www.w3.org/2000/svg" xmlns:xlink="http://www.w3.org/1999/xlink" x="0px" y="0px"
	 viewBox="0 0 29.8 29.2" style="enable-background:new 0 0 29.8 29.2;" xml:space="preserve">
<style type="text/css">
	.st0{fill:#515454;}
	.st1{fill:#FFFFFF;}
	.st2{fill-rule:evenodd;clip-rule:evenodd;fill:#FFFFFF;}
</style>
<rect x="-38.4" y="-54.4" class="st0" width="277.8" height="147.9"/>
<g>
	<g>
		<path class="st0" d="M14.6,29C6.7,29,0.3,22.5,0.3,14.6S6.7,0.3,14.6,0.3C22.5,0.3,29,6.7,29,14.6S22.5,29,14.6,29z"/>
		<g>
			<path class="st1" d="M14.6,0.5c7.8,0,14.1,6.3,14.1,14.1s-6.3,14.1-14.1,14.1c-7.8,0-14.1-6.3-14.1-14.1S6.8,0.5,14.6,0.5
				 M14.6,0C6.6,0,0,6.6,0,14.6s6.6,14.6,14.6,14.6c8.1,0,14.6-6.6,14.6-14.6S22.7,0,14.6,0L14.6,0z"/>
		</g>
	</g>
	<path class="st1" d="M18.3,11.5h-2.5V9.2c0,0,0-0.3,0.2-0.5c0.2-0.2,0.4-0.2,0.4-0.2l1.9,0V6c0,0-2.5,0-2.5,0c0,0-1.7-0.2-2.7,0.8
		c-0.8,0.7-0.8,2-0.8,2v2.8h-1.8v3h1.8v8.6h3.5l0-8.6h1.9L18.3,11.5z"/>
</g>
<g>
	<g>
		<path class="st0" d="M55.4,29c-7.9,0-14.4-6.4-14.4-14.4S47.5,0.3,55.4,0.3c7.9,0,14.4,6.4,14.4,14.4S63.3,29,55.4,29z"/>
		<g>
			<path class="st1" d="M55.4,0.5c7.8,0,14.1,6.3,14.1,14.1s-6.3,14.1-14.1,14.1c-7.8,0-14.1-6.3-14.1-14.1S47.6,0.5,55.4,0.5
				 M55.4,0c-8.1,0-14.6,6.6-14.6,14.6s6.6,14.6,14.6,14.6c8.1,0,14.6-6.6,14.6-14.6S63.5,0,55.4,0L55.4,0z"/>
		</g>
	</g>
	<path class="st2" d="M62.4,9.7c0.3-0.1,0.3,0,0.3,0s-0.8,1-0.8,1c0,0,0.4,0.1,0.7,0.1c0.2,0,0.4,0,0.4,0c0,0-0.1,0.3-0.3,0.4
		c-1.4,0.9-1,2-1.1,3c-0.9,5.4-6.9,9-13.1,6.5c1.5-0.2,4.9-0.9,4.2-1.6c-0.2-0.2-0.7,0-2.1-1.2c-0.4-0.4-0.8-1-0.8-1
		s0.7,0.1,0.9,0.1c0.3,0,0.4,0,0.4,0c0,0-0.5-0.4-0.6-0.5c-0.8-0.7-1.6-1.6-2-2.8c0.9,0.3,1.4,0.4,1.4,0.3c0,0-0.1-0.1-0.2-0.3
		c-0.4-0.5-1.8-2.2-1-4.1c1.4,1.4,3.3,2.8,5.3,3.2c0.6,0.1,1.2,0.3,1.6,0c0.2-0.1,0.2-0.7,0.2-1.3c0-2.2,2.5-3.4,4.3-2.2
		c0.3,0.2,0.5,0.5,0.8,0.6C61.5,10.1,62,9.8,62.4,9.7z"/>
</g>
<g>
	<g>
		<g>
			<g>
				<path class="st0" d="M95.6,29c-7.9,0-14.4-6.4-14.4-14.4c0-7.9,6.4-14.4,14.4-14.4c7.9,0,14.4,6.4,14.4,14.4
					C110,22.5,103.5,29,95.6,29z"/>
				<g>
					<path class="st1" d="M95.6,0.5c7.8,0,14.1,6.3,14.1,14.1c0,7.8-6.3,14.1-14.1,14.1c-7.8,0-14.1-6.3-14.1-14.1
						C81.5,6.8,87.8,0.5,95.6,0.5 M95.6,0C87.5,0,81,6.6,81,14.6c0,8.1,6.6,14.6,14.6,14.6c8.1,0,14.6-6.6,14.6-14.6
						C110.2,6.6,103.7,0,95.6,0L95.6,0z"/>
				</g>
			</g>
		</g>
	</g>
	<g>
		<path class="st2" d="M98.9,6.9c-0.6,0.4-1.1,0.8-1.7,1.3c1,2.1,0.7,3.5-1.1,5.1c-0.8,0.7-0.8,1.1,0.2,1.8c1,0.7,1.8,1.5,2,2.8
			c0.3,1.6-0.1,2.9-1.3,3.8c-1.7,1.2-3.6,1.6-5.7,1c-0.8-0.2-1.8-0.6-2.4-1.1c-1.3-1.2-1.3-2.7-0.1-4.1c1.1-1.2,2.5-1.6,4.1-1.7
			c0-0.5,0-0.9,0-1.3c-0.8-0.3-1.5-0.5-2.2-0.9c-1.4-0.8-2.1-2.6-1.6-4.1c0.6-1.8,2-2.9,3.8-2.9c1.7,0,3.3,0,5,0c0.3,0,0.6,0,0.8,0
			C98.9,6.7,98.9,6.8,98.9,6.9z M93.2,21.3c0.9,0.1,1.4-0.1,1.9-0.3c1.1-0.4,1.7-2,1-2.9c-1.1-1.5-3.4-1.8-4.9-0.7
			c-1.1,0.9-1.1,2.5,0.1,3.2C92,21,92.7,21.2,93.2,21.3z M95.3,11.2c0-1.3-0.4-2.3-1.4-3c-1-0.7-2.2-0.2-2.3,1.1
			c-0.1,1.2,0.2,2.2,0.9,3.1c0.9,1.1,2.1,0.9,2.7-0.4C95.3,11.7,95.3,11.4,95.3,11.2z"/>
		<path class="st2" d="M102.9,13.2c0.9,0,1.7,0,2.5,0c0.5,0,0.7,0.1,0.7,0.7c0,0.5-0.1,0.8-0.7,0.8c-0.8,0-1.6,0-2.6,0
			c0,0.9,0,1.7,0,2.5c0,0.6-0.2,0.7-0.8,0.7c-0.5,0-0.7-0.2-0.7-0.7c0-0.8,0-1.6,0-2.6c-0.8,0-1.5,0-2.2,0c-0.6,0-0.7-0.3-0.7-0.8
			c0-0.5,0.2-0.7,0.7-0.7c0.7,0,1.4,0,2.2,0c0-0.9,0-1.7,0-2.6c0-0.6,0.2-0.7,0.8-0.7c0.5,0,0.7,0.2,0.7,0.7
			C102.8,11.4,102.9,12.2,102.9,13.2z"/>
	</g>
</g>
<g>
	<g>
		<g>
			<path class="st0" d="M135.8,29c-7.9,0-14.4-6.4-14.4-14.4c0-7.9,6.4-14.4,14.4-14.4c7.9,0,14.4,6.4,14.4,14.4
				C150.2,22.5,143.7,29,135.8,29z"/>
			<g>
				<path class="st1" d="M135.8,0.5c7.8,0,14.1,6.3,14.1,14.1c0,7.8-6.3,14.1-14.1,14.1c-7.8,0-14.1-6.3-14.1-14.1
					C121.7,6.8,128,0.5,135.8,0.5 M135.8,0c-8.1,0-14.6,6.6-14.6,14.6c0,8.1,6.6,14.6,14.6,14.6c8.1,0,14.6-6.6,14.6-14.6
					C150.4,6.6,143.9,0,135.8,0L135.8,0z"/>
			</g>
		</g>
	</g>
	<path class="st1" d="M142.2,6.2h-12.8c-1.1,0-2,0.9-2,2V21c0,1.1,0.9,2,2,2h12.8c1.1,0,2-0.9,2-2V8.2
		C144.3,7.1,143.4,6.2,142.2,6.2z M135.8,11.3c1.8,0,3.3,1.5,3.3,3.3c0,1.8-1.5,3.3-3.3,3.3c-1.8,0-3.3-1.5-3.3-3.3
		C132.5,12.8,133.9,11.3,135.8,11.3z M142.4,20.3c0,0.6-0.5,1-1,1h-11.3c-0.6,0-1-0.5-1-1v-6.9h1.6c-0.1,0.4-0.2,0.9-0.2,1.3
		c0,2.9,2.3,5.2,5.2,5.2c2.9,0,5.2-2.3,5.2-5.2c0-0.5-0.1-0.9-0.2-1.3h1.6V20.3z M142.4,10.8c0,0.4-0.3,0.8-0.8,0.8h-1.9
		c-0.4,0-0.8-0.3-0.8-0.8V8.8c0-0.4,0.3-0.8,0.8-0.8h1.9c0.4,0,0.8,0.3,0.8,0.8V10.8z"/>
</g>
<g>
	<g>
		<g>
			<g>
				<path class="st0" d="M174.1,29c-7.9,0-14.4-6.4-14.4-14.4c0-7.9,6.4-14.4,14.4-14.4c7.9,0,14.4,6.4,14.4,14.4
					C188.5,22.5,182,29,174.1,29z"/>
				<g>
					<path class="st1" d="M174.1,0.5c7.8,0,14.1,6.3,14.1,14.1c0,7.8-6.3,14.1-14.1,14.1c-7.8,0-14.1-6.3-14.1-14.1
						C160,6.8,166.3,0.5,174.1,0.5 M174.1,0c-8.1,0-14.6,6.6-14.6,14.6c0,8.1,6.6,14.6,14.6,14.6c8.1,0,14.6-6.6,14.6-14.6
						C188.7,6.6,182.2,0,174.1,0L174.1,0z"/>
				</g>
			</g>
		</g>
	</g>
	<g>
		<path class="st2" d="M174.1,23.3c-1.8,0-3.5,0-5.3,0c-1.2,0-2.3-0.9-2.5-2.1c0-0.1,0-0.2,0-0.2c0-1.9,0-3.8,0-5.7
			c0-0.7,0.3-1.2,0.8-1.7c0.5-0.4,1.1-0.6,1.8-0.6c3.5,0,6.9,0,10.4,0c1.2,0,2.1,0.8,2.4,1.7c0.1,0.2,0.1,0.5,0.1,0.7
			c0,1.8,0,3.7,0,5.5c0,1.2-0.9,2.2-2.1,2.4c-0.1,0-0.3,0-0.4,0C177.6,23.3,175.8,23.3,174.1,23.3z M175.1,21.1
			c0.2,0.1,0.4,0.3,0.6,0.4c0.4,0.2,0.8,0.1,1.1-0.4c0.1-0.3,0.2-0.5,0.2-0.8c0-0.9,0-1.8,0-2.7c0-0.2,0-0.3-0.1-0.5
			c-0.1-0.6-0.7-0.8-1.2-0.6c-0.2,0.1-0.3,0.2-0.5,0.3c0-0.6,0-1.3,0-1.9c-0.4,0-0.7,0-1.1,0c0,0.1,0,0.1,0,0.2c0,1.3,0,2.5,0,3.8
			c0,0.8,0,1.7,0,2.5c0,0.1,0,0.2,0.1,0.1c0.2,0,0.4,0,0.7,0c0.1,0,0.1,0,0.1-0.1C175,21.3,175,21.2,175.1,21.1z M172.4,16.6
			C172.4,16.6,172.4,16.7,172.4,16.6c0,1.2,0,2.4,0,3.5c0,0.1,0,0.2,0,0.3c0,0.2-0.2,0.3-0.4,0.3c-0.1,0-0.2-0.1-0.3-0.2
			c0,0,0-0.1,0-0.2c0-1.2,0-2.4,0-3.6c0-0.1,0-0.1,0-0.2c-0.4,0-0.7,0-1.1,0c0,0,0,0.1,0,0.1c0,1.3,0,2.7,0,4c0,0.1,0,0.3,0,0.4
			c0.1,0.4,0.5,0.6,0.9,0.5c0.4-0.1,0.7-0.2,1-0.6c0,0.2,0,0.4,0,0.6c0.3,0,0.6,0,0.9,0c0-1.6,0-3.3,0-4.9
			C173.1,16.6,172.7,16.6,172.4,16.6z M180.3,19.2c0-0.7,0-1.3-0.1-2c0-0.4-0.3-0.7-0.7-0.8c-0.2-0.1-0.5-0.1-0.8-0.1
			c-0.5,0.1-0.9,0.3-1.1,0.8c-0.1,0.3-0.1,0.6-0.1,0.8c0,0.6,0,1.2,0,1.8c0,0.3,0,0.6,0.1,0.8c0.2,0.7,0.9,1.1,1.6,0.9
			c0.7-0.2,1.1-0.9,1-1.7c0,0,0-0.1-0.1-0.1c-0.2,0-0.5,0-0.7,0c0,0,0,0,0,0c0,0.2,0,0.3,0,0.5c0,0.3-0.2,0.5-0.5,0.5
			c0,0-0.1,0-0.1,0c-0.3,0-0.5-0.2-0.5-0.5c0-0.3,0-0.6,0-1c0-0.1,0-0.1,0-0.2C179.1,19.2,179.7,19.2,180.3,19.2z M169.5,21.5
			c0-2,0-3.9,0-5.8c0.4,0,0.9,0,1.3,0c0-0.3,0-0.6,0-0.9c-1.2,0-2.3,0-3.5,0c0,0.3,0,0.6,0,0.9c0.4,0,0.7,0,1.1,0c0,0.1,0,0.1,0,0.2
			c0,1.8,0,3.6,0,5.4c0,0,0,0.1,0,0.1c0,0,0.1,0.1,0.1,0.1C168.9,21.6,169.2,21.5,169.5,21.5z"/>
		<path class="st2" d="M171.3,4.6c0.4,0,0.8,0,1.2,0c-0.1,0.2-0.2,0.4-0.3,0.6c-0.3,0.8-0.7,1.7-1,2.5c0,0.1-0.1,0.2-0.1,0.3
			c0,1.2,0,2.4,0,3.6c0,0.1,0,0.1,0,0.2c-0.4,0-0.7,0-1.1,0c0-0.1,0-0.1,0-0.2c0-1.1,0-2.2,0-3.4c0-0.3,0-0.5-0.2-0.7
			c-0.4-1-0.8-2-1.3-2.9c0,0,0,0,0-0.1c0.4,0,0.8,0,1.2,0c0.2,0.8,0.5,1.6,0.7,2.5c0,0,0,0,0,0C170.9,6.3,171.1,5.5,171.3,4.6z"/>
		<path class="st2" d="M177.6,11.4c-0.1,0.1-0.2,0.2-0.3,0.3c-0.5,0.3-1,0.1-1.2-0.5c-0.1-0.2-0.1-0.5-0.1-0.7c0-1.3,0-2.6,0-3.8
			c0,0,0,0,0-0.1c0.3,0,0.6,0,1,0c0,0,0,0.1,0,0.2c0,1.3,0,2.5,0,3.8c0,0.3,0.2,0.5,0.5,0.4c0.2,0,0.3-0.2,0.3-0.4c0-1,0-1.9,0-2.9
			c0-0.3,0-0.7,0-1.1c0.3,0,0.6,0,0.9,0c0,1.7,0,3.4,0,5.1c-0.4,0-0.8,0-1.2,0C177.6,11.7,177.6,11.6,177.6,11.4z"/>
		<path class="st2" d="M175.3,9.1c0,0.5,0,0.9,0,1.4c0,0.5-0.2,0.9-0.6,1.2c-0.3,0.2-0.7,0.2-1.1,0.2c-0.8-0.1-1.1-0.7-1.1-1.4
			c0-0.7,0-1.4,0-2.1c0-0.3,0.1-0.7,0.1-1c0.2-0.6,0.7-1,1.4-0.9c0.8,0.1,1.3,0.7,1.3,1.5C175.3,8.3,175.3,8.7,175.3,9.1
			C175.3,9.1,175.3,9.1,175.3,9.1z M174.4,9.2c0-0.5,0-0.9,0-1.4c0-0.4-0.3-0.6-0.6-0.5c-0.2,0.1-0.3,0.3-0.3,0.5c0,0.9,0,1.8,0,2.7
			c0,0.3,0.2,0.5,0.4,0.5c0.3,0.1,0.6-0.2,0.6-0.5C174.4,10.1,174.4,9.7,174.4,9.2z"/>
		<path class="st2" d="M176.1,18.9c0,0.5,0,0.9,0,1.4c0,0.3-0.2,0.4-0.5,0.4c-0.3,0-0.5-0.2-0.5-0.4c0-0.9,0-1.9,0-2.8
			c0-0.3,0.2-0.4,0.5-0.4c0.3,0,0.5,0.2,0.5,0.4C176.1,18,176.1,18.4,176.1,18.9z"/>
		<path class="st2" d="M178.5,18.3c0-0.2,0-0.4,0-0.6c0-0.2,0.2-0.4,0.5-0.4c0.3,0,0.5,0.1,0.5,0.4c0,0,0,0.1,0,0.1
			c0,0.2,0,0.4,0,0.6C179.1,18.3,178.8,18.3,178.5,18.3z"/>
	</g>
</g>
</svg>
