<?xml version="1.0" encoding="utf-8"?>
<!-- Generator: Adobe Illustrator 19.0.0, SVG Export Plug-In . SVG Version: 6.00 Build 0)  -->
<svg version="1.1" id="Слой_1" xmlns="http://www.w3.org/2000/svg" xmlns:xlink="http://www.w3.org/1999/xlink" x="0px" y="0px"
	 viewBox="0 0 29.8 29.2" style="enable-background:new 0 0 29.8 29.2;" xml:space="preserve">
<style type="text/css">
	.st0{fill:#515454;}
	.st1{fill:#FFFFFF;}
	.st2{fill-rule:evenodd;clip-rule:evenodd;fill:#FFFFFF;}
</style>
<rect x="-118.8" y="-54.4" class="st0" width="277.8" height="147.9"/>
<g>
	<g>
		<path class="st0" d="M-65.8,29c-7.9,0-14.4-6.4-14.4-14.4s6.4-14.4,14.4-14.4c7.9,0,14.4,6.4,14.4,14.4S-57.9,29-65.8,29z"/>
		<g>
			<path class="st1" d="M-65.8,0.5c7.8,0,14.1,6.3,14.1,14.1S-58,28.7-65.8,28.7c-7.8,0-14.1-6.3-14.1-14.1S-73.6,0.5-65.8,0.5
				 M-65.8,0c-8.1,0-14.6,6.6-14.6,14.6s6.6,14.6,14.6,14.6c8.1,0,14.6-6.6,14.6-14.6S-57.8,0-65.8,0L-65.8,0z"/>
		</g>
	</g>
	<path class="st1" d="M-62.2,11.5h-2.5V9.2c0,0,0-0.3,0.2-0.5c0.2-0.2,0.4-0.2,0.4-0.2l1.9,0V6c0,0-2.5,0-2.5,0s-1.7-0.2-2.7,0.8
		c-0.8,0.7-0.8,2-0.8,2v2.8h-1.8v3h1.8v8.6h3.5l0-8.6h1.9L-62.2,11.5z"/>
</g>
<g>
	<g>
		<path class="st0" d="M-25,29c-7.9,0-14.4-6.4-14.4-14.4S-32.9,0.2-25,0.2c7.9,0,14.4,6.4,14.4,14.4S-17.1,29-25,29z"/>
		<g>
			<path class="st1" d="M-25,0.5c7.8,0,14.1,6.3,14.1,14.1S-17.2,28.7-25,28.7c-7.8,0-14.1-6.3-14.1-14.1S-32.8,0.5-25,0.5 M-25,0
				c-8.1,0-14.6,6.6-14.6,14.6s6.6,14.6,14.6,14.6c8.1,0,14.6-6.6,14.6-14.6S-17,0-25,0L-25,0z"/>
		</g>
	</g>
	<path class="st2" d="M-18,9.7c0.3-0.1,0.3,0,0.3,0s-0.8,1-0.8,1c0,0,0.4,0.1,0.7,0.1c0.2,0,0.4,0,0.4,0c0,0-0.1,0.3-0.3,0.4
		c-1.4,0.9-1,2-1.1,3c-0.9,5.4-6.9,9-13.1,6.5c1.5-0.2,4.9-0.9,4.2-1.6c-0.2-0.2-0.7,0-2.1-1.2c-0.4-0.4-0.8-1-0.8-1
		s0.7,0.1,0.9,0.1c0.3,0,0.4,0,0.4,0c0,0-0.5-0.4-0.6-0.5c-0.8-0.7-1.6-1.6-2-2.8c0.9,0.3,1.4,0.4,1.4,0.3c0,0-0.1-0.1-0.2-0.3
		c-0.4-0.5-1.8-2.2-1-4.1c1.4,1.4,3.3,2.8,5.3,3.2c0.6,0.1,1.2,0.3,1.6,0c0.2-0.1,0.2-0.7,0.2-1.3c0-2.2,2.5-3.4,4.3-2.2
		c0.3,0.2,0.5,0.5,0.8,0.6C-18.9,10.1-18.4,9.8-18,9.7z"/>
</g>
<g>
	<g>
		<g>
			<g>
				<path class="st0" d="M15.2,29C7.3,29,0.8,22.5,0.8,14.6c0-7.9,6.4-14.4,14.4-14.4c7.9,0,14.4,6.4,14.4,14.4
					C29.5,22.5,23.1,29,15.2,29z"/>
				<g>
					<path class="st1" d="M15.2,0.5c7.8,0,14.1,6.3,14.1,14.1c0,7.8-6.3,14.1-14.1,14.1c-7.8,0-14.1-6.3-14.1-14.1
						C1.1,6.8,7.4,0.5,15.2,0.5 M15.2,0C7.1,0,0.6,6.6,0.6,14.6c0,8.1,6.6,14.6,14.6,14.6c8.1,0,14.6-6.6,14.6-14.6
						C29.8,6.6,23.2,0,15.2,0L15.2,0z"/>
				</g>
			</g>
		</g>
	</g>
	<g>
		<path class="st2" d="M18.5,6.9c-0.6,0.4-1.1,0.8-1.7,1.3c1,2.1,0.7,3.5-1.1,5.1c-0.8,0.7-0.8,1.1,0.2,1.8c1,0.7,1.8,1.5,2,2.8
			c0.3,1.6-0.1,2.9-1.3,3.8c-1.7,1.2-3.6,1.6-5.7,1c-0.8-0.2-1.8-0.6-2.4-1.1c-1.3-1.2-1.3-2.7-0.1-4.1c1.1-1.2,2.5-1.6,4.1-1.7
			c0-0.5,0-0.9,0-1.3c-0.8-0.3-1.5-0.5-2.2-0.9C9,12.7,8.3,11,8.8,9.5c0.6-1.8,2-2.9,3.8-2.9c1.7,0,3.3,0,5,0c0.3,0,0.6,0,0.8,0
			C18.4,6.7,18.5,6.8,18.5,6.9z M12.8,21.3c0.9,0.1,1.4-0.1,1.9-0.3c1.1-0.4,1.7-2,1-2.9c-1.1-1.5-3.4-1.8-4.9-0.7
			c-1.1,0.9-1.1,2.5,0.1,3.2C11.5,21,12.3,21.2,12.8,21.3z M14.9,11.2c0-1.3-0.4-2.3-1.4-3c-1-0.7-2.2-0.2-2.3,1.1
			c-0.1,1.2,0.2,2.2,0.9,3.1c0.9,1.1,2.1,0.9,2.7-0.4C14.8,11.7,14.8,11.4,14.9,11.2z"/>
		<path class="st2" d="M22.4,13.2c0.9,0,1.7,0,2.5,0c0.5,0,0.7,0.1,0.7,0.7c0,0.5-0.1,0.8-0.7,0.8c-0.8,0-1.6,0-2.6,0
			c0,0.9,0,1.7,0,2.5c0,0.6-0.2,0.7-0.8,0.7c-0.5,0-0.7-0.2-0.7-0.7c0-0.8,0-1.6,0-2.6c-0.8,0-1.5,0-2.2,0c-0.6,0-0.7-0.3-0.7-0.8
			c0-0.5,0.2-0.7,0.7-0.7c0.7,0,1.4,0,2.2,0c0-0.9,0-1.7,0-2.6c0-0.6,0.2-0.7,0.8-0.7c0.5,0,0.7,0.2,0.7,0.7
			C22.4,11.4,22.4,12.2,22.4,13.2z"/>
	</g>
</g>
<g>
	<g>
		<g>
			<path class="st0" d="M55.4,29C47.5,29,41,22.5,41,14.6c0-7.9,6.4-14.4,14.4-14.4c7.9,0,14.4,6.4,14.4,14.4
				C69.7,22.5,63.3,29,55.4,29z"/>
			<g>
				<path class="st1" d="M55.4,0.5c7.8,0,14.1,6.3,14.1,14.1c0,7.8-6.3,14.1-14.1,14.1c-7.8,0-14.1-6.3-14.1-14.1
					C41.3,6.8,47.6,0.5,55.4,0.5 M55.4,0c-8.1,0-14.6,6.6-14.6,14.6c0,8.1,6.6,14.6,14.6,14.6c8.1,0,14.6-6.6,14.6-14.6
					C70,6.6,63.4,0,55.4,0L55.4,0z"/>
			</g>
		</g>
	</g>
	<path class="st1" d="M61.8,6.1H49c-1.1,0-2,0.9-2,2V21c0,1.1,0.9,2,2,2h12.8c1.1,0,2-0.9,2-2V8.2C63.8,7.1,62.9,6.1,61.8,6.1z
		 M55.3,11.3c1.8,0,3.3,1.5,3.3,3.3c0,1.8-1.5,3.3-3.3,3.3c-1.8,0-3.3-1.5-3.3-3.3C52,12.8,53.5,11.3,55.3,11.3z M62,20.3
		c0,0.6-0.5,1-1,1H49.7c-0.6,0-1-0.5-1-1v-6.9h1.6c-0.1,0.4-0.2,0.9-0.2,1.3c0,2.9,2.3,5.2,5.2,5.2c2.9,0,5.2-2.3,5.2-5.2
		c0-0.5-0.1-0.9-0.2-1.3H62V20.3z M62,10.8c0,0.4-0.3,0.8-0.8,0.8h-1.9c-0.4,0-0.8-0.3-0.8-0.8V8.8c0-0.4,0.3-0.8,0.8-0.8h1.9
		c0.4,0,0.8,0.3,0.8,0.8V10.8z"/>
</g>
<g>
	<g>
		<g>
			<g>
				<path class="st0" d="M93.7,29c-7.9,0-14.4-6.4-14.4-14.4c0-7.9,6.4-14.4,14.4-14.4c7.9,0,14.4,6.4,14.4,14.4
					C108,22.5,101.6,29,93.7,29z"/>
				<g>
					<path class="st1" d="M93.7,0.5c7.8,0,14.1,6.3,14.1,14.1c0,7.8-6.3,14.1-14.1,14.1c-7.8,0-14.1-6.3-14.1-14.1
						C79.6,6.8,85.9,0.5,93.7,0.5 M93.7,0c-8.1,0-14.6,6.6-14.6,14.6c0,8.1,6.6,14.6,14.6,14.6c8.1,0,14.6-6.6,14.6-14.6
						C108.3,6.6,101.7,0,93.7,0L93.7,0z"/>
				</g>
			</g>
		</g>
	</g>
	<g>
		<path class="st2" d="M93.6,23.3c-1.8,0-3.5,0-5.3,0c-1.2,0-2.3-0.9-2.5-2.1c0-0.1,0-0.2,0-0.2c0-1.9,0-3.8,0-5.7
			c0-0.7,0.3-1.2,0.8-1.7c0.5-0.4,1.1-0.6,1.8-0.6c3.5,0,6.9,0,10.4,0c1.2,0,2.1,0.8,2.4,1.7c0.1,0.2,0.1,0.5,0.1,0.7
			c0,1.8,0,3.7,0,5.5c0,1.2-0.9,2.2-2.1,2.4c-0.1,0-0.3,0-0.4,0C97.2,23.3,95.4,23.3,93.6,23.3z M94.6,21.1c0.2,0.1,0.4,0.3,0.6,0.4
			c0.4,0.2,0.8,0.1,1.1-0.4c0.1-0.3,0.2-0.5,0.2-0.8c0-0.9,0-1.8,0-2.7c0-0.2,0-0.3-0.1-0.5c-0.1-0.6-0.7-0.8-1.2-0.6
			c-0.2,0.1-0.3,0.2-0.5,0.3c0-0.6,0-1.3,0-1.9c-0.4,0-0.7,0-1.1,0c0,0.1,0,0.1,0,0.2c0,1.3,0,2.5,0,3.8c0,0.8,0,1.7,0,2.5
			c0,0.1,0,0.2,0.1,0.1c0.2,0,0.4,0,0.7,0c0.1,0,0.1,0,0.1-0.1C94.6,21.3,94.6,21.2,94.6,21.1z M91.9,16.6
			C91.9,16.6,91.9,16.7,91.9,16.6c0,1.2,0,2.4,0,3.5c0,0.1,0,0.2,0,0.3c0,0.2-0.2,0.3-0.4,0.3c-0.1,0-0.2-0.1-0.3-0.2
			c0,0,0-0.1,0-0.2c0-1.2,0-2.4,0-3.6c0-0.1,0-0.1,0-0.2c-0.4,0-0.7,0-1.1,0c0,0,0,0.1,0,0.1c0,1.3,0,2.7,0,4c0,0.1,0,0.3,0,0.4
			c0.1,0.4,0.5,0.6,0.9,0.5c0.4-0.1,0.7-0.2,1-0.6c0,0.2,0,0.4,0,0.6c0.3,0,0.6,0,0.9,0c0-1.6,0-3.3,0-4.9
			C92.6,16.6,92.3,16.6,91.9,16.6z M99.9,19.2c0-0.7,0-1.3-0.1-2c0-0.4-0.3-0.7-0.7-0.8c-0.2-0.1-0.5-0.1-0.8-0.1
			c-0.5,0.1-0.9,0.3-1.1,0.8c-0.1,0.3-0.1,0.6-0.1,0.8c0,0.6,0,1.2,0,1.8c0,0.3,0,0.6,0.1,0.8c0.2,0.7,0.9,1.1,1.6,0.9
			c0.7-0.2,1.1-0.9,1-1.7c0,0,0-0.1-0.1-0.1c-0.2,0-0.5,0-0.7,0c0,0,0,0,0,0c0,0.2,0,0.3,0,0.5c0,0.3-0.2,0.5-0.5,0.5
			c0,0-0.1,0-0.1,0c-0.3,0-0.5-0.2-0.5-0.5c0-0.3,0-0.6,0-1c0-0.1,0-0.1,0-0.2C98.6,19.2,99.2,19.2,99.9,19.2z M89.1,21.5
			c0-2,0-3.9,0-5.8c0.4,0,0.9,0,1.3,0c0-0.3,0-0.6,0-0.9c-1.2,0-2.3,0-3.5,0c0,0.3,0,0.6,0,0.9c0.4,0,0.7,0,1.1,0c0,0.1,0,0.1,0,0.2
			c0,1.8,0,3.6,0,5.4c0,0,0,0.1,0,0.1c0,0,0.1,0.1,0.1,0.1C88.4,21.5,88.8,21.5,89.1,21.5z"/>
		<path class="st2" d="M90.9,4.6c0.4,0,0.8,0,1.2,0c-0.1,0.2-0.2,0.4-0.3,0.6c-0.3,0.8-0.7,1.7-1,2.5c0,0.1-0.1,0.2-0.1,0.3
			c0,1.2,0,2.4,0,3.6c0,0.1,0,0.1,0,0.2c-0.4,0-0.7,0-1.1,0c0-0.1,0-0.1,0-0.2c0-1.1,0-2.2,0-3.4c0-0.3,0-0.5-0.2-0.7
			c-0.4-1-0.8-2-1.3-2.9c0,0,0,0,0-0.1c0.4,0,0.8,0,1.2,0c0.2,0.8,0.5,1.6,0.7,2.5c0,0,0,0,0,0C90.4,6.3,90.7,5.5,90.9,4.6z"/>
		<path class="st2" d="M97.1,11.4c-0.1,0.1-0.2,0.2-0.3,0.3c-0.5,0.3-1,0.1-1.2-0.5c-0.1-0.2-0.1-0.5-0.1-0.7c0-1.3,0-2.6,0-3.8
			c0,0,0,0,0-0.1c0.3,0,0.6,0,1,0c0,0,0,0.1,0,0.2c0,1.3,0,2.5,0,3.8c0,0.3,0.2,0.5,0.5,0.4c0.2,0,0.3-0.2,0.3-0.4c0-1,0-1.9,0-2.9
			c0-0.3,0-0.7,0-1.1c0.3,0,0.6,0,0.9,0c0,1.7,0,3.4,0,5.1c-0.4,0-0.8,0-1.2,0C97.1,11.7,97.1,11.6,97.1,11.4z"/>
		<path class="st2" d="M94.9,9.1c0,0.5,0,0.9,0,1.4c0,0.5-0.2,0.9-0.6,1.2c-0.3,0.2-0.7,0.2-1.1,0.2c-0.8-0.1-1.1-0.7-1.1-1.4
			c0-0.7,0-1.4,0-2.1c0-0.3,0.1-0.7,0.1-1c0.2-0.6,0.7-1,1.4-0.9c0.8,0.1,1.3,0.7,1.3,1.5C94.9,8.3,94.9,8.7,94.9,9.1
			C94.9,9.1,94.9,9.1,94.9,9.1z M94,9.2c0-0.5,0-0.9,0-1.4c0-0.4-0.3-0.6-0.6-0.5C93.1,7.4,93,7.6,93,7.8c0,0.9,0,1.8,0,2.7
			c0,0.3,0.2,0.5,0.4,0.5c0.3,0.1,0.6-0.2,0.6-0.5C94,10.1,94,9.7,94,9.2z"/>
		<path class="st2" d="M95.7,18.9c0,0.5,0,0.9,0,1.4c0,0.3-0.2,0.4-0.5,0.4c-0.3,0-0.5-0.2-0.5-0.4c0-0.9,0-1.9,0-2.8
			c0-0.3,0.2-0.4,0.5-0.4c0.3,0,0.5,0.2,0.5,0.4C95.7,18,95.7,18.4,95.7,18.9z"/>
		<path class="st2" d="M98,18.3c0-0.2,0-0.4,0-0.6c0-0.2,0.2-0.4,0.5-0.4c0.3,0,0.5,0.1,0.5,0.4c0,0,0,0.1,0,0.1c0,0.2,0,0.4,0,0.6
			C98.7,18.3,98.4,18.3,98,18.3z"/>
	</g>
</g>
</svg>
