<?xml version="1.0" encoding="utf-8"?>
<!-- Generator: Adobe Illustrator 19.0.0, SVG Export Plug-In . SVG Version: 6.00 Build 0)  -->
<svg version="1.1" id="Слой_1" xmlns="http://www.w3.org/2000/svg" xmlns:xlink="http://www.w3.org/1999/xlink" x="0px" y="0px"
	 viewBox="0 0 29.2 29.2" style="enable-background:new 0 0 29.2 29.2;" xml:space="preserve">
<style type="text/css">
	.st0{fill:#515454;}
	.st1{fill:#FFFFFF;}
	.st2{fill-rule:evenodd;clip-rule:evenodd;fill:#FFFFFF;}
</style>
<rect x="-159.6" y="-54.4" class="st0" width="277.8" height="147.9"/>
<g>
	<g>
		<path class="st0" d="M-106.6,29c-7.9,0-14.4-6.4-14.4-14.4s6.4-14.4,14.4-14.4c7.9,0,14.4,6.4,14.4,14.4S-98.7,29-106.6,29z"/>
		<g>
			<path class="st1" d="M-106.6,0.5c7.8,0,14.1,6.3,14.1,14.1s-6.3,14.1-14.1,14.1c-7.8,0-14.1-6.3-14.1-14.1S-114.4,0.5-106.6,0.5
				 M-106.6,0c-8.1,0-14.6,6.6-14.6,14.6s6.6,14.6,14.6,14.6c8.1,0,14.6-6.6,14.6-14.6S-98.6,0-106.6,0L-106.6,0z"/>
		</g>
	</g>
	<path class="st1" d="M-103,11.5h-2.5V9.2c0,0,0-0.3,0.2-0.5c0.2-0.2,0.4-0.2,0.4-0.2l1.9,0V6c0,0-2.5,0-2.5,0s-1.7-0.2-2.7,0.8
		c-0.8,0.7-0.8,2-0.8,2v2.8h-1.8v3h1.8v8.6h3.5l0-8.6h1.9L-103,11.5z"/>
</g>
<g>
	<g>
		<path class="st0" d="M-65.8,29c-7.9,0-14.4-6.4-14.4-14.4s6.4-14.4,14.4-14.4c7.9,0,14.4,6.4,14.4,14.4S-57.9,29-65.8,29z"/>
		<g>
			<path class="st1" d="M-65.8,0.5c7.8,0,14.1,6.3,14.1,14.1S-58,28.7-65.8,28.7c-7.8,0-14.1-6.3-14.1-14.1S-73.6,0.5-65.8,0.5
				 M-65.8,0c-8.1,0-14.6,6.6-14.6,14.6s6.6,14.6,14.6,14.6c8.1,0,14.6-6.6,14.6-14.6S-57.8,0-65.8,0L-65.8,0z"/>
		</g>
	</g>
	<path class="st2" d="M-58.8,9.7c0.3-0.1,0.3,0,0.3,0s-0.8,1-0.8,1c0,0,0.4,0.1,0.7,0.1c0.2,0,0.4,0,0.4,0c0,0-0.1,0.3-0.3,0.4
		c-1.4,0.9-1,2-1.1,3c-0.9,5.4-6.9,9-13.1,6.5c1.5-0.2,4.9-0.9,4.2-1.6c-0.2-0.2-0.7,0-2.1-1.2c-0.4-0.4-0.8-1-0.8-1
		s0.7,0.1,0.9,0.1c0.3,0,0.4,0,0.4,0c0,0-0.5-0.4-0.6-0.5c-0.8-0.7-1.6-1.6-2-2.8c0.9,0.3,1.4,0.4,1.4,0.3c0,0-0.1-0.1-0.2-0.3
		c-0.4-0.5-1.8-2.2-1-4.1c1.4,1.4,3.3,2.8,5.3,3.2c0.6,0.1,1.2,0.3,1.6,0c0.2-0.1,0.2-0.7,0.2-1.3c0-2.2,2.5-3.4,4.3-2.2
		c0.3,0.2,0.5,0.5,0.8,0.6C-59.7,10.1-59.2,9.8-58.8,9.7z"/>
</g>
<g>
	<g>
		<g>
			<g>
				<path class="st0" d="M-25.6,29C-33.5,29-40,22.5-40,14.6c0-7.9,6.4-14.4,14.4-14.4c7.9,0,14.4,6.4,14.4,14.4
					C-11.3,22.5-17.7,29-25.6,29z"/>
				<g>
					<path class="st1" d="M-25.6,0.5c7.8,0,14.1,6.3,14.1,14.1c0,7.8-6.3,14.1-14.1,14.1c-7.8,0-14.1-6.3-14.1-14.1
						C-39.7,6.8-33.4,0.5-25.6,0.5 M-25.6,0c-8.1,0-14.6,6.6-14.6,14.6c0,8.1,6.6,14.6,14.6,14.6c8.1,0,14.6-6.6,14.6-14.6
						C-11,6.6-17.6,0-25.6,0L-25.6,0z"/>
				</g>
			</g>
		</g>
	</g>
	<g>
		<path class="st2" d="M-22.3,6.9c-0.6,0.4-1.1,0.8-1.7,1.3c1,2.1,0.7,3.5-1.1,5.1c-0.8,0.7-0.8,1.1,0.2,1.8c1,0.7,1.8,1.5,2,2.8
			c0.3,1.6-0.1,2.9-1.3,3.8c-1.7,1.2-3.6,1.6-5.7,1c-0.8-0.2-1.8-0.6-2.4-1.1c-1.3-1.2-1.3-2.7-0.1-4.1c1.1-1.2,2.5-1.6,4.1-1.7
			c0-0.5,0-0.9,0-1.3c-0.8-0.3-1.5-0.5-2.2-0.9c-1.4-0.8-2.1-2.6-1.6-4.1c0.6-1.8,2-2.9,3.8-2.9c1.7,0,3.3,0,5,0c0.3,0,0.6,0,0.8,0
			C-22.4,6.7-22.3,6.8-22.3,6.9z M-28,21.3c0.9,0.1,1.4-0.1,1.9-0.3c1.1-0.4,1.7-2,1-2.9c-1.1-1.5-3.4-1.8-4.9-0.7
			c-1.1,0.9-1.1,2.5,0.1,3.2C-29.2,21-28.5,21.2-28,21.3z M-25.9,11.2c0-1.3-0.4-2.3-1.4-3c-1-0.7-2.2-0.2-2.3,1.1
			c-0.1,1.2,0.2,2.2,0.9,3.1c0.9,1.1,2.1,0.9,2.7-0.4C-25.9,11.7-26,11.4-25.9,11.2z"/>
		<path class="st2" d="M-18.4,13.2c0.9,0,1.7,0,2.5,0c0.5,0,0.7,0.1,0.7,0.7c0,0.5-0.1,0.8-0.7,0.8c-0.8,0-1.6,0-2.6,0
			c0,0.9,0,1.7,0,2.5c0,0.6-0.2,0.7-0.8,0.7c-0.5,0-0.7-0.2-0.7-0.7c0-0.8,0-1.6,0-2.6c-0.8,0-1.5,0-2.2,0c-0.6,0-0.7-0.3-0.7-0.8
			c0-0.5,0.2-0.7,0.7-0.7c0.7,0,1.4,0,2.2,0c0-0.9,0-1.7,0-2.6c0-0.6,0.2-0.7,0.8-0.7c0.5,0,0.7,0.2,0.7,0.7
			C-18.4,11.4-18.4,12.2-18.4,13.2z"/>
	</g>
</g>
<g>
	<g>
		<g>
			<path class="st0" d="M14.6,29C6.7,29,0.3,22.5,0.3,14.6c0-7.9,6.4-14.4,14.4-14.4C22.5,0.3,29,6.7,29,14.6
				C29,22.5,22.5,29,14.6,29z"/>
			<g>
				<path class="st1" d="M14.6,0.5c7.8,0,14.1,6.3,14.1,14.1c0,7.8-6.3,14.1-14.1,14.1c-7.8,0-14.1-6.3-14.1-14.1
					C0.5,6.8,6.8,0.5,14.6,0.5 M14.6,0C6.6,0,0,6.6,0,14.6c0,8.1,6.6,14.6,14.6,14.6c8.1,0,14.6-6.6,14.6-14.6
					C29.2,6.6,22.7,0,14.6,0L14.6,0z"/>
			</g>
		</g>
	</g>
	<path class="st1" d="M21,6.1H8.2c-1.1,0-2,0.9-2,2V21c0,1.1,0.9,2,2,2H21c1.1,0,2-0.9,2-2V8.2C23.1,7.1,22.1,6.1,21,6.1z
		 M14.6,11.3c1.8,0,3.3,1.5,3.3,3.3c0,1.8-1.5,3.3-3.3,3.3c-1.8,0-3.3-1.5-3.3-3.3C11.2,12.8,12.7,11.3,14.6,11.3z M21.2,20.3
		c0,0.6-0.5,1-1,1H8.9c-0.6,0-1-0.5-1-1v-6.9h1.6c-0.1,0.4-0.2,0.9-0.2,1.3c0,2.9,2.3,5.2,5.2,5.2c2.9,0,5.2-2.3,5.2-5.2
		c0-0.5-0.1-0.9-0.2-1.3h1.6V20.3z M21.2,10.8c0,0.4-0.3,0.8-0.8,0.8h-1.9c-0.4,0-0.8-0.3-0.8-0.8V8.8c0-0.4,0.3-0.8,0.8-0.8h1.9
		c0.4,0,0.8,0.3,0.8,0.8V10.8z"/>
</g>
<g>
	<g>
		<g>
			<g>
				<path class="st0" d="M52.9,29c-7.9,0-14.4-6.4-14.4-14.4c0-7.9,6.4-14.4,14.4-14.4c7.9,0,14.4,6.4,14.4,14.4
					C67.2,22.5,60.8,29,52.9,29z"/>
				<g>
					<path class="st1" d="M52.9,0.5C60.7,0.5,67,6.8,67,14.6c0,7.8-6.3,14.1-14.1,14.1c-7.8,0-14.1-6.3-14.1-14.1
						C38.8,6.8,45.1,0.5,52.9,0.5 M52.9,0c-8.1,0-14.6,6.6-14.6,14.6c0,8.1,6.6,14.6,14.6,14.6c8.1,0,14.6-6.6,14.6-14.6
						C67.5,6.6,60.9,0,52.9,0L52.9,0z"/>
				</g>
			</g>
		</g>
	</g>
	<g>
		<path class="st2" d="M52.9,23.3c-1.8,0-3.5,0-5.3,0c-1.2,0-2.3-0.9-2.5-2.1c0-0.1,0-0.2,0-0.2c0-1.9,0-3.8,0-5.7
			c0-0.7,0.3-1.2,0.8-1.7c0.5-0.4,1.1-0.6,1.8-0.6c3.5,0,6.9,0,10.4,0c1.2,0,2.1,0.8,2.4,1.7c0.1,0.2,0.1,0.5,0.1,0.7
			c0,1.8,0,3.7,0,5.5c0,1.2-0.9,2.2-2.1,2.4c-0.1,0-0.3,0-0.4,0C56.4,23.3,54.6,23.3,52.9,23.3z M53.8,21.1c0.2,0.1,0.4,0.3,0.6,0.4
			c0.4,0.2,0.8,0.1,1.1-0.4c0.1-0.3,0.2-0.5,0.2-0.8c0-0.9,0-1.8,0-2.7c0-0.2,0-0.3-0.1-0.5c-0.1-0.6-0.7-0.8-1.2-0.6
			c-0.2,0.1-0.3,0.2-0.5,0.3c0-0.6,0-1.3,0-1.9c-0.4,0-0.7,0-1.1,0c0,0.1,0,0.1,0,0.2c0,1.3,0,2.5,0,3.8c0,0.8,0,1.7,0,2.5
			c0,0.1,0,0.2,0.1,0.1c0.2,0,0.4,0,0.7,0c0.1,0,0.1,0,0.1-0.1C53.8,21.3,53.8,21.2,53.8,21.1z M51.1,16.6
			C51.1,16.6,51.1,16.7,51.1,16.6c0,1.2,0,2.4,0,3.5c0,0.1,0,0.2,0,0.3c0,0.2-0.2,0.3-0.4,0.3c-0.1,0-0.2-0.1-0.3-0.2
			c0,0,0-0.1,0-0.2c0-1.2,0-2.4,0-3.6c0-0.1,0-0.1,0-0.2c-0.4,0-0.7,0-1.1,0c0,0,0,0.1,0,0.1c0,1.3,0,2.7,0,4c0,0.1,0,0.3,0,0.4
			c0.1,0.4,0.5,0.6,0.9,0.5c0.4-0.1,0.7-0.2,1-0.6c0,0.2,0,0.4,0,0.6c0.3,0,0.6,0,0.9,0c0-1.6,0-3.3,0-4.9
			C51.9,16.6,51.5,16.6,51.1,16.6z M59.1,19.2c0-0.7,0-1.3-0.1-2c0-0.4-0.3-0.7-0.7-0.8c-0.2-0.1-0.5-0.1-0.8-0.1
			c-0.5,0.1-0.9,0.3-1.1,0.8c-0.1,0.3-0.1,0.6-0.1,0.8c0,0.6,0,1.2,0,1.8c0,0.3,0,0.6,0.1,0.8c0.2,0.7,0.9,1.1,1.6,0.9
			c0.7-0.2,1.1-0.9,1-1.7c0,0,0-0.1-0.1-0.1c-0.2,0-0.5,0-0.7,0c0,0,0,0,0,0c0,0.2,0,0.3,0,0.5c0,0.3-0.2,0.5-0.5,0.5
			c0,0-0.1,0-0.1,0c-0.3,0-0.5-0.2-0.5-0.5c0-0.3,0-0.6,0-1c0-0.1,0-0.1,0-0.2C57.8,19.2,58.4,19.2,59.1,19.2z M48.3,21.5
			c0-2,0-3.9,0-5.8c0.4,0,0.9,0,1.3,0c0-0.3,0-0.6,0-0.9c-1.2,0-2.3,0-3.5,0c0,0.3,0,0.6,0,0.9c0.4,0,0.7,0,1.1,0c0,0.1,0,0.1,0,0.2
			c0,1.8,0,3.6,0,5.4c0,0,0,0.1,0,0.1c0,0,0.1,0.1,0.1,0.1C47.6,21.5,48,21.5,48.3,21.5z"/>
		<path class="st2" d="M50.1,4.6c0.4,0,0.8,0,1.2,0c-0.1,0.2-0.2,0.4-0.3,0.6c-0.3,0.8-0.7,1.7-1,2.5C50,7.9,50,8,50,8.1
			c0,1.2,0,2.4,0,3.6c0,0.1,0,0.1,0,0.2c-0.4,0-0.7,0-1.1,0c0-0.1,0-0.1,0-0.2c0-1.1,0-2.2,0-3.4c0-0.3,0-0.5-0.2-0.7
			c-0.4-1-0.8-2-1.3-2.9c0,0,0,0,0-0.1c0.4,0,0.8,0,1.2,0c0.2,0.8,0.5,1.6,0.7,2.5c0,0,0,0,0,0C49.6,6.3,49.9,5.5,50.1,4.6z"/>
		<path class="st2" d="M56.3,11.4c-0.1,0.1-0.2,0.2-0.3,0.3c-0.5,0.3-1,0.1-1.2-0.5c-0.1-0.2-0.1-0.5-0.1-0.7c0-1.3,0-2.6,0-3.8
			c0,0,0,0,0-0.1c0.3,0,0.6,0,1,0c0,0,0,0.1,0,0.2c0,1.3,0,2.5,0,3.8c0,0.3,0.2,0.5,0.5,0.4c0.2,0,0.3-0.2,0.3-0.4c0-1,0-1.9,0-2.9
			c0-0.3,0-0.7,0-1.1c0.3,0,0.6,0,0.9,0c0,1.7,0,3.4,0,5.1c-0.4,0-0.8,0-1.2,0C56.3,11.7,56.3,11.6,56.3,11.4z"/>
		<path class="st2" d="M54.1,9.1c0,0.5,0,0.9,0,1.4c0,0.5-0.2,0.9-0.6,1.2c-0.3,0.2-0.7,0.2-1.1,0.2c-0.8-0.1-1.1-0.7-1.1-1.4
			c0-0.7,0-1.4,0-2.1c0-0.3,0.1-0.7,0.1-1c0.2-0.6,0.7-1,1.4-0.9c0.8,0.1,1.3,0.7,1.3,1.5C54.1,8.3,54.1,8.7,54.1,9.1
			C54.1,9.1,54.1,9.1,54.1,9.1z M53.2,9.2c0-0.5,0-0.9,0-1.4c0-0.4-0.3-0.6-0.6-0.5c-0.2,0.1-0.3,0.3-0.3,0.5c0,0.9,0,1.8,0,2.7
			c0,0.3,0.2,0.5,0.4,0.5c0.3,0.1,0.6-0.2,0.6-0.5C53.2,10.1,53.2,9.7,53.2,9.2z"/>
		<path class="st2" d="M54.9,18.9c0,0.5,0,0.9,0,1.4c0,0.3-0.2,0.4-0.5,0.4c-0.3,0-0.5-0.2-0.5-0.4c0-0.9,0-1.9,0-2.8
			c0-0.3,0.2-0.4,0.5-0.4c0.3,0,0.5,0.2,0.5,0.4C54.9,18,54.9,18.4,54.9,18.9z"/>
		<path class="st2" d="M57.2,18.3c0-0.2,0-0.4,0-0.6c0-0.2,0.2-0.4,0.5-0.4c0.3,0,0.5,0.1,0.5,0.4c0,0,0,0.1,0,0.1
			c0,0.2,0,0.4,0,0.6C57.9,18.3,57.6,18.3,57.2,18.3z"/>
	</g>
</g>
</svg>
