<?xml version="1.0" encoding="utf-8"?>
<!-- Generator: Adobe Illustrator 19.0.0, SVG Export Plug-In . SVG Version: 6.00 Build 0)  -->
<svg version="1.1" id="Forma_1_1_" xmlns="http://www.w3.org/2000/svg" xmlns:xlink="http://www.w3.org/1999/xlink" x="0px" y="0px"
	 viewBox="0 0 95 83" style="enable-background:new 0 0 95 83;" xml:space="preserve" width="29px" height="18px">
<style type="text/css">
	.st0{fill:#FFFFFF;}
</style>
<g id="Forma_1">
	<g>
		<path class="st0" d="M10.8,0C4.9,0,0,4.9,0,10.9c0,6,4.9,10.9,10.9,10.9c6,0,10.9-4.9,10.9-10.9C21.7,4.9,16.8,0,10.8,0z
			 M10.8,30.1C4.9,30.1,0,35,0,41C0,47.1,4.9,52,10.8,52c6,0,10.9-4.9,10.9-10.9C21.7,35,16.8,30.1,10.8,30.1z M10.8,61.1
			C4.9,61.1,0,66,0,72.1C0,78.1,4.9,83,10.8,83c6,0,10.9-4.9,10.9-10.9C21.7,66,16.8,61.1,10.8,61.1z M34.1,18.1H93
			c0.5,0,1-0.2,1.4-0.6s0.6-0.9,0.6-1.4l0-10.3c0-1.1-0.9-2-2-2H34.1c-1.1,0-2,0.9-2,2v10.3C32.1,17.2,33,18.1,34.1,18.1z M93,33.9
			H34.1c-1.1,0-2,0.9-2,2v10.3c0,1.1,0.9,2,2,2H93c0.5,0,1-0.2,1.4-0.6c0.4-0.4,0.6-0.9,0.6-1.4l0-10.3C95,34.8,94.1,33.9,93,33.9z
			 M93,64.9H34.1c-1.1,0-2,0.9-2,2v10.3c0,1.1,0.9,2,2,2H93c0.5,0,1-0.2,1.4-0.6c0.4-0.4,0.6-0.9,0.6-1.4l0-10.3
			C95,65.8,94.1,64.9,93,64.9z"/>
	</g>
</g>
</svg>
