<?xml version="1.0" encoding="utf-8"?>
<!-- Generator: Adobe Illustrator 19.0.0, SVG Export Plug-In . SVG Version: 6.00 Build 0)  -->
<svg version="1.1" id="Слой_1" xmlns="http://www.w3.org/2000/svg" xmlns:xlink="http://www.w3.org/1999/xlink" x="0px" y="0px"
	 viewBox="0 0 29.2 29.2" style="enable-background:new 0 0 29.2 29.2;" xml:space="preserve">
<style type="text/css">
	.st0{fill:#515454;}
	.st1{fill:#FFFFFF;}
	.st2{fill-rule:evenodd;clip-rule:evenodd;fill:#FFFFFF;}
</style>
<rect x="-197.9" y="-54.4" class="st0" width="277.8" height="147.9"/>
<g>
	<g>
		<path class="st0" d="M-144.9,29c-7.9,0-14.4-6.4-14.4-14.4s6.4-14.4,14.4-14.4c7.9,0,14.4,6.4,14.4,14.4S-137,29-144.9,29z"/>
		<g>
			<path class="st1" d="M-144.9,0.5c7.8,0,14.1,6.3,14.1,14.1s-6.3,14.1-14.1,14.1c-7.8,0-14.1-6.3-14.1-14.1S-152.7,0.5-144.9,0.5
				 M-144.9,0c-8.1,0-14.6,6.6-14.6,14.6s6.6,14.6,14.6,14.6c8.1,0,14.6-6.6,14.6-14.6S-136.8,0-144.9,0L-144.9,0z"/>
		</g>
	</g>
	<path class="st1" d="M-141.2,11.5h-2.5V9.2c0,0,0-0.3,0.2-0.5c0.2-0.2,0.4-0.2,0.4-0.2l1.9,0V6c0,0-2.5,0-2.5,0s-1.7-0.2-2.7,0.8
		c-0.8,0.7-0.8,2-0.8,2v2.8h-1.8v3h1.8v8.6h3.5l0-8.6h1.9L-141.2,11.5z"/>
</g>
<g>
	<g>
		<path class="st0" d="M-104.1,29c-7.9,0-14.4-6.4-14.4-14.4s6.4-14.4,14.4-14.4c7.9,0,14.4,6.4,14.4,14.4S-96.2,29-104.1,29z"/>
		<g>
			<path class="st1" d="M-104.1,0.5c7.8,0,14.1,6.3,14.1,14.1s-6.3,14.1-14.1,14.1c-7.8,0-14.1-6.3-14.1-14.1S-111.9,0.5-104.1,0.5
				 M-104.1,0c-8.1,0-14.6,6.6-14.6,14.6s6.6,14.6,14.6,14.6c8.1,0,14.6-6.6,14.6-14.6S-96,0-104.1,0L-104.1,0z"/>
		</g>
	</g>
	<path class="st2" d="M-97.1,9.7c0.3-0.1,0.3,0,0.3,0s-0.8,1-0.8,1c0,0,0.4,0.1,0.7,0.1c0.2,0,0.4,0,0.4,0c0,0-0.1,0.3-0.3,0.4
		c-1.4,0.9-1,2-1.1,3c-0.9,5.4-6.9,9-13.1,6.5c1.5-0.2,4.9-0.9,4.2-1.6c-0.2-0.2-0.7,0-2.1-1.2c-0.4-0.4-0.8-1-0.8-1
		s0.7,0.1,0.9,0.1c0.3,0,0.4,0,0.4,0c0,0-0.5-0.4-0.6-0.5c-0.8-0.7-1.6-1.6-2-2.8c0.9,0.3,1.4,0.4,1.4,0.3c0,0-0.1-0.1-0.2-0.3
		c-0.4-0.5-1.8-2.2-1-4.1c1.4,1.4,3.3,2.8,5.3,3.2c0.6,0.1,1.2,0.3,1.6,0c0.2-0.1,0.2-0.7,0.2-1.3c0-2.2,2.5-3.4,4.3-2.2
		c0.3,0.2,0.5,0.5,0.8,0.6C-98,10.1-97.5,9.8-97.1,9.7z"/>
</g>
<g>
	<g>
		<g>
			<g>
				<path class="st0" d="M-63.9,29c-7.9,0-14.4-6.4-14.4-14.4c0-7.9,6.4-14.4,14.4-14.4c7.9,0,14.4,6.4,14.4,14.4
					C-49.5,22.5-56,29-63.9,29z"/>
				<g>
					<path class="st1" d="M-63.9,0.5c7.8,0,14.1,6.3,14.1,14.1c0,7.8-6.3,14.1-14.1,14.1c-7.8,0-14.1-6.3-14.1-14.1
						C-78,6.8-71.7,0.5-63.9,0.5 M-63.9,0c-8.1,0-14.6,6.6-14.6,14.6c0,8.1,6.6,14.6,14.6,14.6c8.1,0,14.6-6.6,14.6-14.6
						C-49.3,6.6-55.8,0-63.9,0L-63.9,0z"/>
				</g>
			</g>
		</g>
	</g>
	<g>
		<path class="st2" d="M-60.6,6.9c-0.6,0.4-1.1,0.8-1.7,1.3c1,2.1,0.7,3.5-1.1,5.1c-0.8,0.7-0.8,1.1,0.2,1.8c1,0.7,1.8,1.5,2,2.8
			c0.3,1.6-0.1,2.9-1.3,3.8c-1.7,1.2-3.6,1.6-5.7,1c-0.8-0.2-1.8-0.6-2.4-1.1c-1.3-1.2-1.3-2.7-0.1-4.1c1.1-1.2,2.5-1.6,4.1-1.7
			c0-0.5,0-0.9,0-1.3c-0.8-0.3-1.5-0.5-2.2-0.9c-1.4-0.8-2.1-2.6-1.6-4.1c0.6-1.8,2-2.9,3.8-2.9c1.7,0,3.3,0,5,0c0.3,0,0.6,0,0.8,0
			C-60.6,6.7-60.6,6.8-60.6,6.9z M-66.3,21.3c0.9,0.1,1.4-0.1,1.9-0.3c1.1-0.4,1.7-2,1-2.9c-1.1-1.5-3.4-1.8-4.9-0.7
			c-1.1,0.9-1.1,2.5,0.1,3.2C-67.5,21-66.8,21.2-66.3,21.3z M-64.2,11.2c0-1.3-0.4-2.3-1.4-3c-1-0.7-2.2-0.2-2.3,1.1
			c-0.1,1.2,0.2,2.2,0.9,3.1c0.9,1.1,2.1,0.9,2.7-0.4C-64.2,11.7-64.2,11.4-64.2,11.2z"/>
		<path class="st2" d="M-56.6,13.2c0.9,0,1.7,0,2.5,0c0.5,0,0.7,0.1,0.7,0.7c0,0.5-0.1,0.8-0.7,0.8c-0.8,0-1.6,0-2.6,0
			c0,0.9,0,1.7,0,2.5c0,0.6-0.2,0.7-0.8,0.7c-0.5,0-0.7-0.2-0.7-0.7c0-0.8,0-1.6,0-2.6c-0.8,0-1.5,0-2.2,0c-0.6,0-0.7-0.3-0.7-0.8
			c0-0.5,0.2-0.7,0.7-0.7c0.7,0,1.4,0,2.2,0c0-0.9,0-1.7,0-2.6c0-0.6,0.2-0.7,0.8-0.7c0.5,0,0.7,0.2,0.7,0.7
			C-56.6,11.4-56.6,12.2-56.6,13.2z"/>
	</g>
</g>
<g>
	<g>
		<g>
			<path class="st0" d="M-23.7,29C-31.6,29-38,22.5-38,14.6c0-7.9,6.4-14.4,14.4-14.4c7.9,0,14.4,6.4,14.4,14.4
				C-9.3,22.5-15.8,29-23.7,29z"/>
			<g>
				<path class="st1" d="M-23.7,0.5c7.8,0,14.1,6.3,14.1,14.1c0,7.8-6.3,14.1-14.1,14.1c-7.8,0-14.1-6.3-14.1-14.1
					C-37.8,6.8-31.5,0.5-23.7,0.5 M-23.7,0c-8.1,0-14.6,6.6-14.6,14.6c0,8.1,6.6,14.6,14.6,14.6c8.1,0,14.6-6.6,14.6-14.6
					C-9.1,6.6-15.6,0-23.7,0L-23.7,0z"/>
			</g>
		</g>
	</g>
	<path class="st1" d="M-17.3,6.1h-12.8c-1.1,0-2,0.9-2,2V21c0,1.1,0.9,2,2,2h12.8c1.1,0,2-0.9,2-2V8.2C-15.2,7.1-16.1,6.1-17.3,6.1z
		 M-23.7,11.3c1.8,0,3.3,1.5,3.3,3.3c0,1.8-1.5,3.3-3.3,3.3c-1.8,0-3.3-1.5-3.3-3.3C-27,12.8-25.5,11.3-23.7,11.3z M-17.1,20.3
		c0,0.6-0.5,1-1,1h-11.3c-0.6,0-1-0.5-1-1v-6.9h1.6c-0.1,0.4-0.2,0.9-0.2,1.3c0,2.9,2.3,5.2,5.2,5.2c2.9,0,5.2-2.3,5.2-5.2
		c0-0.5-0.1-0.9-0.2-1.3h1.6V20.3z M-17.1,10.8c0,0.4-0.3,0.8-0.8,0.8h-1.9c-0.4,0-0.8-0.3-0.8-0.8V8.8c0-0.4,0.3-0.8,0.8-0.8h1.9
		c0.4,0,0.8,0.3,0.8,0.8V10.8z"/>
</g>
<g>
	<g>
		<g>
			<g>
				<path class="st0" d="M14.6,29C6.7,29,0.3,22.5,0.3,14.6c0-7.9,6.4-14.4,14.4-14.4C22.5,0.2,29,6.7,29,14.6
					C29,22.5,22.5,29,14.6,29z"/>
				<g>
					<path class="st1" d="M14.6,0.5c7.8,0,14.1,6.3,14.1,14.1c0,7.8-6.3,14.1-14.1,14.1c-7.8,0-14.1-6.3-14.1-14.1
						C0.5,6.8,6.8,0.5,14.6,0.5 M14.6,0C6.6,0,0,6.6,0,14.6c0,8.1,6.6,14.6,14.6,14.6c8.1,0,14.6-6.6,14.6-14.6
						C29.2,6.6,22.7,0,14.6,0L14.6,0z"/>
				</g>
			</g>
		</g>
	</g>
	<g>
		<path class="st2" d="M14.6,23.3c-1.8,0-3.5,0-5.3,0c-1.2,0-2.3-0.9-2.5-2.1c0-0.1,0-0.2,0-0.2c0-1.9,0-3.8,0-5.7
			c0-0.7,0.3-1.2,0.8-1.7C8.2,13.2,8.8,13,9.5,13c3.5,0,6.9,0,10.4,0c1.2,0,2.1,0.8,2.4,1.7c0.1,0.2,0.1,0.5,0.1,0.7
			c0,1.8,0,3.7,0,5.5c0,1.2-0.9,2.2-2.1,2.4c-0.1,0-0.3,0-0.4,0C18.1,23.3,16.4,23.3,14.6,23.3z M15.6,21.1c0.2,0.1,0.4,0.3,0.6,0.4
			c0.4,0.2,0.8,0.1,1.1-0.4c0.1-0.3,0.2-0.5,0.2-0.8c0-0.9,0-1.8,0-2.7c0-0.2,0-0.3-0.1-0.5c-0.1-0.6-0.7-0.8-1.2-0.6
			c-0.2,0.1-0.3,0.2-0.5,0.3c0-0.6,0-1.3,0-1.9c-0.4,0-0.7,0-1.1,0c0,0.1,0,0.1,0,0.2c0,1.3,0,2.5,0,3.8c0,0.8,0,1.7,0,2.5
			c0,0.1,0,0.2,0.1,0.1c0.2,0,0.4,0,0.7,0c0.1,0,0.1,0,0.1-0.1C15.5,21.3,15.6,21.2,15.6,21.1z M12.9,16.6
			C12.9,16.6,12.9,16.7,12.9,16.6c0,1.2,0,2.4,0,3.5c0,0.1,0,0.2,0,0.3c0,0.2-0.2,0.3-0.4,0.3c-0.1,0-0.2-0.1-0.3-0.2
			c0,0,0-0.1,0-0.2c0-1.2,0-2.4,0-3.6c0-0.1,0-0.1,0-0.2c-0.4,0-0.7,0-1.1,0c0,0,0,0.1,0,0.1c0,1.3,0,2.7,0,4c0,0.1,0,0.3,0,0.4
			c0.1,0.4,0.5,0.6,0.9,0.5c0.4-0.1,0.7-0.2,1-0.6c0,0.2,0,0.4,0,0.6c0.3,0,0.6,0,0.9,0c0-1.6,0-3.3,0-4.9
			C13.6,16.6,13.2,16.6,12.9,16.6z M20.8,19.2c0-0.7,0-1.3-0.1-2c0-0.4-0.3-0.7-0.7-0.8c-0.2-0.1-0.5-0.1-0.8-0.1
			c-0.5,0.1-0.9,0.3-1.1,0.8c-0.1,0.3-0.1,0.6-0.1,0.8c0,0.6,0,1.2,0,1.8c0,0.3,0,0.6,0.1,0.8c0.2,0.7,0.9,1.1,1.6,0.9
			c0.7-0.2,1.1-0.9,1-1.7c0,0,0-0.1-0.1-0.1c-0.2,0-0.5,0-0.7,0c0,0,0,0,0,0c0,0.2,0,0.3,0,0.5c0,0.3-0.2,0.5-0.5,0.5
			c0,0-0.1,0-0.1,0c-0.3,0-0.5-0.2-0.5-0.5c0-0.3,0-0.6,0-1c0-0.1,0-0.1,0-0.2C19.6,19.2,20.2,19.2,20.8,19.2z M10.1,21.5
			c0-2,0-3.9,0-5.8c0.4,0,0.9,0,1.3,0c0-0.3,0-0.6,0-0.9c-1.2,0-2.3,0-3.5,0c0,0.3,0,0.6,0,0.9c0.4,0,0.7,0,1.1,0c0,0.1,0,0.1,0,0.2
			c0,1.8,0,3.6,0,5.4c0,0,0,0.1,0,0.1c0,0,0.1,0.1,0.1,0.1C9.4,21.5,9.7,21.5,10.1,21.5z"/>
		<path class="st2" d="M11.8,4.6c0.4,0,0.8,0,1.2,0c-0.1,0.2-0.2,0.4-0.3,0.6c-0.3,0.8-0.7,1.7-1,2.5c0,0.1-0.1,0.2-0.1,0.3
			c0,1.2,0,2.4,0,3.6c0,0.1,0,0.1,0,0.2c-0.4,0-0.7,0-1.1,0c0-0.1,0-0.1,0-0.2c0-1.1,0-2.2,0-3.4c0-0.3,0-0.5-0.2-0.7
			c-0.4-1-0.8-2-1.3-2.9c0,0,0,0,0-0.1c0.4,0,0.8,0,1.2,0c0.2,0.8,0.5,1.6,0.7,2.5c0,0,0,0,0,0C11.4,6.3,11.6,5.5,11.8,4.6z"/>
		<path class="st2" d="M18.1,11.4c-0.1,0.1-0.2,0.2-0.3,0.3c-0.5,0.3-1,0.1-1.2-0.5c-0.1-0.2-0.1-0.5-0.1-0.7c0-1.3,0-2.6,0-3.8
			c0,0,0,0,0-0.1c0.3,0,0.6,0,1,0c0,0,0,0.1,0,0.2c0,1.3,0,2.5,0,3.8c0,0.3,0.2,0.5,0.5,0.4c0.2,0,0.3-0.2,0.3-0.4c0-1,0-1.9,0-2.9
			c0-0.3,0-0.7,0-1.1c0.3,0,0.6,0,0.9,0c0,1.7,0,3.4,0,5.1c-0.4,0-0.8,0-1.2,0C18.1,11.7,18.1,11.6,18.1,11.4z"/>
		<path class="st2" d="M15.8,9.1c0,0.5,0,0.9,0,1.4c0,0.5-0.2,0.9-0.6,1.2c-0.3,0.2-0.7,0.2-1.1,0.2c-0.8-0.1-1.1-0.7-1.1-1.4
			c0-0.7,0-1.4,0-2.1c0-0.3,0.1-0.7,0.1-1c0.2-0.6,0.7-1,1.4-0.9c0.8,0.1,1.3,0.7,1.3,1.5C15.8,8.3,15.8,8.7,15.8,9.1
			C15.8,9.1,15.8,9.1,15.8,9.1z M14.9,9.2c0-0.5,0-0.9,0-1.4c0-0.4-0.3-0.6-0.6-0.5c-0.2,0.1-0.3,0.3-0.3,0.5c0,0.9,0,1.8,0,2.7
			c0,0.3,0.2,0.5,0.4,0.5c0.3,0.1,0.6-0.2,0.6-0.5C14.9,10.1,14.9,9.7,14.9,9.2z"/>
		<path class="st2" d="M16.6,18.9c0,0.5,0,0.9,0,1.4c0,0.3-0.2,0.4-0.5,0.4c-0.3,0-0.5-0.2-0.5-0.4c0-0.9,0-1.9,0-2.8
			c0-0.3,0.2-0.4,0.5-0.4c0.3,0,0.5,0.2,0.5,0.4C16.6,18,16.6,18.4,16.6,18.9z"/>
		<path class="st2" d="M19,18.3c0-0.2,0-0.4,0-0.6c0-0.2,0.2-0.4,0.5-0.4c0.3,0,0.5,0.1,0.5,0.4c0,0,0,0.1,0,0.1c0,0.2,0,0.4,0,0.6
			C19.6,18.3,19.3,18.3,19,18.3z"/>
	</g>
</g>
</svg>
