<?xml version="1.0" encoding="utf-8"?>
<!-- Generator: Adobe Illustrator 17.0.0, SVG Export Plug-In . SVG Version: 6.00 Build 0)  -->
<!DOCTYPE svg PUBLIC "-//W3C//DTD SVG 1.1//EN" "http://www.w3.org/Graphics/SVG/1.1/DTD/svg11.dtd">
<svg version="1.1" id="Capa_1" xmlns="http://www.w3.org/2000/svg" xmlns:xlink="http://www.w3.org/1999/xlink" x="0px" y="0px"
	 width="30px" height="30px" viewBox="229.84 229.84 52.275 52.275" enable-background="new 229.84 229.84 52.275 52.275"
	 xml:space="preserve">
<circle fill="#464649" cx="256" cy="256" r="24.712"/>
<g>
	<path fill="#FFFFFF" d="M256,230.4c-14.139,0-25.6,11.461-25.6,25.6s11.461,25.6,25.6,25.6s25.6-11.461,25.6-25.6
		S270.139,230.4,256,230.4z M256,277.6c-11.93,0-21.6-9.67-21.6-21.6c0-11.93,9.67-21.6,21.6-21.6c11.93,0,21.6,9.67,21.6,21.6
		C277.6,267.93,267.93,277.6,256,277.6z"/>
	<g>
		<g>
			<path fill="#FFFFFF" d="M258.206,243.995c0.872-0.489,1.253-0.806,1.253-0.806h-8.328c-1.669,0-6.303,1.895-6.303,6.32
				c0,4.426,4.806,5.376,6.55,5.304c-0.978,1.194-0.141,2.284,0.384,2.842c0.522,0.563,0.416,0.738-0.209,0.738
				c-0.628,0-8.363,0.084-8.363,5.622s10.278,5.938,13.656,2.953c3.378-2.984,2.647-7.1,0.034-8.959
				c-2.612-1.861-3.587-2.739-1.916-4.214c1.672-1.475,2.997-2.669,2.997-5.409c0-2.741-2.266-4.142-2.266-4.142
				S257.334,244.487,258.206,243.995z M256.916,263.733c0,2.389-2.028,3.547-5.472,3.547c-3.447,0-5.294-1.72-5.294-4.284
				c0-2.566,2.509-3.83,7.213-3.83C254.638,260.148,256.916,261.342,256.916,263.733z M251.934,253.722
				c-4.147,0-6.028-9.69-1.15-9.69C254.581,243.89,257.438,253.722,251.934,253.722z M265.675,246.404v-3.152h-1.628v3.152h-3.188
				v1.636h3.188v3.157h1.628v-3.157h3.134v-1.636H265.675L265.675,246.404z"/>
		</g>
	</g>
</g>
</svg>
