<?xml version="1.0" encoding="utf-8"?>
<!-- Generator: Adobe Illustrator 17.0.0, SVG Export Plug-In . SVG Version: 6.00 Build 0)  -->
<!DOCTYPE svg PUBLIC "-//W3C//DTD SVG 1.1//EN" "http://www.w3.org/Graphics/SVG/1.1/DTD/svg11.dtd">
<svg version="1.1" id="Forma_1_1_" xmlns="http://www.w3.org/2000/svg" xmlns:xlink="http://www.w3.org/1999/xlink" x="0px" y="0px"
	 width="30px" height="30px" viewBox="0 0 58.274 57.311" enable-background="new 0 0 58.274 57.311" xml:space="preserve">
<ellipse fill="#FCFCFC" cx="29.217" cy="28.655" rx="28.061" ry="27.985"/>
<g id="Forma_1">
	<g>
		<path fill="#464649" d="M29.308,33.424c2.62,0,4.755-2.132,4.755-4.753c0-1.035-0.339-1.99-0.9-2.771
			c-0.865-1.197-2.269-1.983-3.854-1.983c-1.587,0-2.99,0.784-3.855,1.982c-0.562,0.78-0.898,1.736-0.899,2.771
			C24.553,31.291,26.687,33.424,29.308,33.424z M39.687,22.856v-4.577l-0.597,0.002l-3.982,0.012l0.016,4.578L39.687,22.856z
			 M29.309,4.927c-13.092,0-23.744,10.651-23.744,23.744c0,13.092,10.651,23.744,23.744,23.744
			c13.092,0,23.744-10.651,23.744-23.744C53.052,15.578,42.401,4.927,29.309,4.927z M42.812,36.956c0,2.88-2.341,5.22-5.219,5.22
			H21.024c-2.879,0-5.219-2.34-5.219-5.22V20.387c0-2.879,2.34-5.219,5.219-5.219h16.568c2.879,0,5.22,2.34,5.22,5.219V36.956z
			 M36.694,28.67c0,4.071-3.312,7.386-7.385,7.386c-4.073,0-7.385-3.315-7.385-7.386c0-0.979,0.195-1.916,0.543-2.771h-4.031v11.056
			c0,1.429,1.16,2.586,2.588,2.586h16.568c1.428,0,2.588-1.157,2.588-2.586V25.9h-4.032C36.496,26.755,36.694,27.691,36.694,28.67z"
			/>
	</g>
</g>
</svg>
