<?xml version="1.0" encoding="utf-8"?>
<!-- Generator: Adobe Illustrator 19.0.0, SVG Export Plug-In . SVG Version: 6.00 Build 0)  -->
<svg version="1.1" id="Слой_1" xmlns="http://www.w3.org/2000/svg" xmlns:xlink="http://www.w3.org/1999/xlink" x="0px" y="0px"
	 viewBox="0 0 29.6 29.2" style="enable-background:new 0 0 29.6 29.2;" xml:space="preserve">
<style type="text/css">
	.st0{fill:#515454;}
	.st1{fill:#FFFFFF;}
	.st2{fill-rule:evenodd;clip-rule:evenodd;fill:#FFFFFF;}
</style>
<rect x="-78.8" y="-54.4" class="st0" width="277.8" height="147.9"/>
<g>
	<g>
		<path class="st0" d="M-25.8,29c-7.9,0-14.4-6.4-14.4-14.4s6.4-14.4,14.4-14.4c7.9,0,14.4,6.4,14.4,14.4S-17.9,29-25.8,29z"/>
		<g>
			<path class="st1" d="M-25.8,0.5c7.8,0,14.1,6.3,14.1,14.1S-18,28.7-25.8,28.7c-7.8,0-14.1-6.3-14.1-14.1S-33.6,0.5-25.8,0.5
				 M-25.8,0c-8.1,0-14.6,6.6-14.6,14.6s6.6,14.6,14.6,14.6c8.1,0,14.6-6.6,14.6-14.6S-17.8,0-25.8,0L-25.8,0z"/>
		</g>
	</g>
	<path class="st1" d="M-22.1,11.5h-2.5V9.2c0,0,0-0.3,0.2-0.5c0.2-0.2,0.4-0.2,0.4-0.2l1.9,0V6c0,0-2.5,0-2.5,0s-1.7-0.2-2.7,0.8
		c-0.8,0.7-0.8,2-0.8,2v2.8h-1.8v3h1.8v8.6h3.5l0-8.6h1.9L-22.1,11.5z"/>
</g>
<g>
	<g>
		<path class="st0" d="M15,29C7.1,29,0.6,22.5,0.6,14.6S7.1,0.3,15,0.3c7.9,0,14.4,6.4,14.4,14.4S22.9,29,15,29z"/>
		<g>
			<path class="st1" d="M15,0.5c7.8,0,14.1,6.3,14.1,14.1S22.8,28.7,15,28.7c-7.8,0-14.1-6.3-14.1-14.1S7.2,0.5,15,0.5 M15,0
				C6.9,0,0.4,6.6,0.4,14.6S6.9,29.2,15,29.2c8.1,0,14.6-6.6,14.6-14.6S23,0,15,0L15,0z"/>
		</g>
	</g>
	<path class="st2" d="M22,9.7c0.3-0.1,0.3,0,0.3,0s-0.8,1-0.8,1c0,0,0.4,0.1,0.7,0.1c0.2,0,0.4,0,0.4,0c0,0-0.1,0.3-0.3,0.4
		c-1.4,0.9-1,2-1.1,3c-0.9,5.4-6.9,9-13.1,6.5c1.5-0.2,4.9-0.9,4.2-1.6c-0.2-0.2-0.7,0-2.1-1.2c-0.4-0.4-0.8-1-0.8-1
		s0.7,0.1,0.9,0.1c0.3,0,0.4,0,0.4,0c0,0-0.5-0.4-0.6-0.5c-0.8-0.7-1.6-1.6-2-2.8C9.1,13.9,9.7,14,9.7,14c0,0-0.1-0.1-0.2-0.3
		c-0.4-0.5-1.8-2.2-1-4.1c1.4,1.4,3.3,2.8,5.3,3.2c0.6,0.1,1.2,0.3,1.6,0c0.2-0.1,0.2-0.7,0.2-1.3c0-2.2,2.5-3.4,4.3-2.2
		c0.3,0.2,0.5,0.5,0.8,0.6C21.1,10.1,21.6,9.8,22,9.7z"/>
</g>
<g>
	<g>
		<g>
			<g>
				<path class="st0" d="M55.2,29c-7.9,0-14.4-6.4-14.4-14.4c0-7.9,6.4-14.4,14.4-14.4c7.9,0,14.4,6.4,14.4,14.4
					C69.5,22.5,63.1,29,55.2,29z"/>
				<g>
					<path class="st1" d="M55.2,0.5c7.8,0,14.1,6.3,14.1,14.1c0,7.8-6.3,14.1-14.1,14.1c-7.8,0-14.1-6.3-14.1-14.1
						C41.1,6.8,47.4,0.5,55.2,0.5 M55.2,0c-8.1,0-14.6,6.6-14.6,14.6c0,8.1,6.6,14.6,14.6,14.6c8.1,0,14.6-6.6,14.6-14.6
						C69.8,6.6,63.2,0,55.2,0L55.2,0z"/>
				</g>
			</g>
		</g>
	</g>
	<g>
		<path class="st2" d="M58.5,6.9c-0.6,0.4-1.1,0.8-1.7,1.3c1,2.1,0.7,3.5-1.1,5.1c-0.8,0.7-0.8,1.1,0.2,1.8c1,0.7,1.8,1.5,2,2.8
			c0.3,1.6-0.1,2.9-1.3,3.8c-1.7,1.2-3.6,1.6-5.7,1c-0.8-0.2-1.8-0.6-2.4-1.1c-1.3-1.2-1.3-2.7-0.1-4.1c1.1-1.2,2.5-1.6,4.1-1.7
			c0-0.5,0-0.9,0-1.3c-0.8-0.3-1.5-0.5-2.2-0.9c-1.4-0.8-2.1-2.6-1.6-4.1c0.6-1.8,2-2.9,3.8-2.9c1.7,0,3.3,0,5,0c0.3,0,0.6,0,0.8,0
			C58.4,6.7,58.5,6.8,58.5,6.9z M52.8,21.3c0.9,0.1,1.4-0.1,1.9-0.3c1.1-0.4,1.7-2,1-2.9c-1.1-1.5-3.4-1.8-4.9-0.7
			c-1.1,0.9-1.1,2.5,0.1,3.2C51.6,21,52.3,21.2,52.8,21.3z M54.9,11.2c0-1.3-0.4-2.3-1.4-3c-1-0.7-2.2-0.2-2.3,1.1
			c-0.1,1.2,0.2,2.2,0.9,3.1c0.9,1.1,2.1,0.9,2.7-0.4C54.9,11.7,54.9,11.4,54.9,11.2z"/>
		<path class="st2" d="M62.4,13.2c0.9,0,1.7,0,2.5,0c0.5,0,0.7,0.1,0.7,0.7c0,0.5-0.1,0.8-0.7,0.8c-0.8,0-1.6,0-2.6,0
			c0,0.9,0,1.7,0,2.5c0,0.6-0.2,0.7-0.8,0.7c-0.5,0-0.7-0.2-0.7-0.7c0-0.8,0-1.6,0-2.6c-0.8,0-1.5,0-2.2,0c-0.6,0-0.7-0.3-0.7-0.8
			c0-0.5,0.2-0.7,0.7-0.7c0.7,0,1.4,0,2.2,0c0-0.9,0-1.7,0-2.6c0-0.6,0.2-0.7,0.8-0.7c0.5,0,0.7,0.2,0.7,0.7
			C62.4,11.4,62.4,12.2,62.4,13.2z"/>
	</g>
</g>
<g>
	<g>
		<g>
			<path class="st0" d="M95.4,29c-7.9,0-14.4-6.4-14.4-14.4c0-7.9,6.4-14.4,14.4-14.4c7.9,0,14.4,6.4,14.4,14.4
				C109.8,22.5,103.3,29,95.4,29z"/>
			<g>
				<path class="st1" d="M95.4,0.5c7.8,0,14.1,6.3,14.1,14.1c0,7.8-6.3,14.1-14.1,14.1c-7.8,0-14.1-6.3-14.1-14.1
					C81.3,6.8,87.6,0.5,95.4,0.5 M95.4,0c-8.1,0-14.6,6.6-14.6,14.6c0,8.1,6.6,14.6,14.6,14.6c8.1,0,14.6-6.6,14.6-14.6
					C110,6.6,103.5,0,95.4,0L95.4,0z"/>
			</g>
		</g>
	</g>
	<path class="st1" d="M101.8,6.2H89c-1.1,0-2,0.9-2,2V21c0,1.1,0.9,2,2,2h12.8c1.1,0,2-0.9,2-2V8.2C103.9,7.1,102.9,6.2,101.8,6.2z
		 M95.4,11.3c1.8,0,3.3,1.5,3.3,3.3c0,1.8-1.5,3.3-3.3,3.3c-1.8,0-3.3-1.5-3.3-3.3C92,12.8,93.5,11.3,95.4,11.3z M102,20.3
		c0,0.6-0.5,1-1,1H89.7c-0.6,0-1-0.5-1-1v-6.9h1.6c-0.1,0.4-0.2,0.9-0.2,1.3c0,2.9,2.3,5.2,5.2,5.2c2.9,0,5.2-2.3,5.2-5.2
		c0-0.5-0.1-0.9-0.2-1.3h1.6V20.3z M102,10.8c0,0.4-0.3,0.8-0.8,0.8h-1.9c-0.4,0-0.8-0.3-0.8-0.8V8.8c0-0.4,0.3-0.8,0.8-0.8h1.9
		c0.4,0,0.8,0.3,0.8,0.8V10.8z"/>
</g>
<g>
	<g>
		<g>
			<g>
				<path class="st0" d="M133.7,29c-7.9,0-14.4-6.4-14.4-14.4c0-7.9,6.4-14.4,14.4-14.4c7.9,0,14.4,6.4,14.4,14.4
					C148,22.5,141.6,29,133.7,29z"/>
				<g>
					<path class="st1" d="M133.7,0.5c7.8,0,14.1,6.3,14.1,14.1c0,7.8-6.3,14.1-14.1,14.1c-7.8,0-14.1-6.3-14.1-14.1
						C119.6,6.8,125.9,0.5,133.7,0.5 M133.7,0c-8.1,0-14.6,6.6-14.6,14.6c0,8.1,6.6,14.6,14.6,14.6c8.1,0,14.6-6.6,14.6-14.6
						C148.3,6.6,141.7,0,133.7,0L133.7,0z"/>
				</g>
			</g>
		</g>
	</g>
	<g>
		<path class="st2" d="M133.7,23.3c-1.8,0-3.5,0-5.3,0c-1.2,0-2.3-0.9-2.5-2.1c0-0.1,0-0.2,0-0.2c0-1.9,0-3.8,0-5.7
			c0-0.7,0.3-1.2,0.8-1.7c0.5-0.4,1.1-0.6,1.8-0.6c3.5,0,6.9,0,10.4,0c1.2,0,2.1,0.8,2.4,1.7c0.1,0.2,0.1,0.5,0.1,0.7
			c0,1.8,0,3.7,0,5.5c0,1.2-0.9,2.2-2.1,2.4c-0.1,0-0.3,0-0.4,0C137.2,23.3,135.4,23.3,133.7,23.3z M134.6,21.1
			c0.2,0.1,0.4,0.3,0.6,0.4c0.4,0.2,0.8,0.1,1.1-0.4c0.1-0.3,0.2-0.5,0.2-0.8c0-0.9,0-1.8,0-2.7c0-0.2,0-0.3-0.1-0.5
			c-0.1-0.6-0.7-0.8-1.2-0.6c-0.2,0.1-0.3,0.2-0.5,0.3c0-0.6,0-1.3,0-1.9c-0.4,0-0.7,0-1.1,0c0,0.1,0,0.1,0,0.2c0,1.3,0,2.5,0,3.8
			c0,0.8,0,1.7,0,2.5c0,0.1,0,0.2,0.1,0.1c0.2,0,0.4,0,0.7,0c0.1,0,0.1,0,0.1-0.1C134.6,21.3,134.6,21.2,134.6,21.1z M131.9,16.6
			C131.9,16.6,131.9,16.7,131.9,16.6c0,1.2,0,2.4,0,3.5c0,0.1,0,0.2,0,0.3c0,0.2-0.2,0.3-0.4,0.3c-0.1,0-0.2-0.1-0.3-0.2
			c0,0,0-0.1,0-0.2c0-1.2,0-2.4,0-3.6c0-0.1,0-0.1,0-0.2c-0.4,0-0.7,0-1.1,0c0,0,0,0.1,0,0.1c0,1.3,0,2.7,0,4c0,0.1,0,0.3,0,0.4
			c0.1,0.4,0.5,0.6,0.9,0.5c0.4-0.1,0.7-0.2,1-0.6c0,0.2,0,0.4,0,0.6c0.3,0,0.6,0,0.9,0c0-1.6,0-3.3,0-4.9
			C132.7,16.6,132.3,16.6,131.9,16.6z M139.9,19.2c0-0.7,0-1.3-0.1-2c0-0.4-0.3-0.7-0.7-0.8c-0.2-0.1-0.5-0.1-0.8-0.1
			c-0.5,0.1-0.9,0.3-1.1,0.8c-0.1,0.3-0.1,0.6-0.1,0.8c0,0.6,0,1.2,0,1.8c0,0.3,0,0.6,0.1,0.8c0.2,0.7,0.9,1.1,1.6,0.9
			c0.7-0.2,1.1-0.9,1-1.7c0,0,0-0.1-0.1-0.1c-0.2,0-0.5,0-0.7,0c0,0,0,0,0,0c0,0.2,0,0.3,0,0.5c0,0.3-0.2,0.5-0.5,0.5
			c0,0-0.1,0-0.1,0c-0.3,0-0.5-0.2-0.5-0.5c0-0.3,0-0.6,0-1c0-0.1,0-0.1,0-0.2C138.6,19.2,139.3,19.2,139.9,19.2z M129.1,21.5
			c0-2,0-3.9,0-5.8c0.4,0,0.9,0,1.3,0c0-0.3,0-0.6,0-0.9c-1.2,0-2.3,0-3.5,0c0,0.3,0,0.6,0,0.9c0.4,0,0.7,0,1.1,0c0,0.1,0,0.1,0,0.2
			c0,1.8,0,3.6,0,5.4c0,0,0,0.1,0,0.1c0,0,0.1,0.1,0.1,0.1C128.4,21.6,128.8,21.5,129.1,21.5z"/>
		<path class="st2" d="M130.9,4.6c0.4,0,0.8,0,1.2,0c-0.1,0.2-0.2,0.4-0.3,0.6c-0.3,0.8-0.7,1.7-1,2.5c0,0.1-0.1,0.2-0.1,0.3
			c0,1.2,0,2.4,0,3.6c0,0.1,0,0.1,0,0.2c-0.4,0-0.7,0-1.1,0c0-0.1,0-0.1,0-0.2c0-1.1,0-2.2,0-3.4c0-0.3,0-0.5-0.2-0.7
			c-0.4-1-0.8-2-1.3-2.9c0,0,0,0,0-0.1c0.4,0,0.8,0,1.2,0c0.2,0.8,0.5,1.6,0.7,2.5c0,0,0,0,0,0C130.4,6.3,130.7,5.5,130.9,4.6z"/>
		<path class="st2" d="M137.1,11.4c-0.1,0.1-0.2,0.2-0.3,0.3c-0.5,0.3-1,0.1-1.2-0.5c-0.1-0.2-0.1-0.5-0.1-0.7c0-1.3,0-2.6,0-3.8
			c0,0,0,0,0-0.1c0.3,0,0.6,0,1,0c0,0,0,0.1,0,0.2c0,1.3,0,2.5,0,3.8c0,0.3,0.2,0.5,0.5,0.4c0.2,0,0.3-0.2,0.3-0.4c0-1,0-1.9,0-2.9
			c0-0.3,0-0.7,0-1.1c0.3,0,0.6,0,0.9,0c0,1.7,0,3.4,0,5.1c-0.4,0-0.8,0-1.2,0C137.1,11.7,137.1,11.6,137.1,11.4z"/>
		<path class="st2" d="M134.9,9.1c0,0.5,0,0.9,0,1.4c0,0.5-0.2,0.9-0.6,1.2c-0.3,0.2-0.7,0.2-1.1,0.2c-0.8-0.1-1.1-0.7-1.1-1.4
			c0-0.7,0-1.4,0-2.1c0-0.3,0.1-0.7,0.1-1c0.2-0.6,0.7-1,1.4-0.9c0.8,0.1,1.3,0.7,1.3,1.5C134.9,8.3,134.9,8.7,134.9,9.1
			C134.9,9.1,134.9,9.1,134.9,9.1z M134,9.2c0-0.5,0-0.9,0-1.4c0-0.4-0.3-0.6-0.6-0.5c-0.2,0.1-0.3,0.3-0.3,0.5c0,0.9,0,1.8,0,2.7
			c0,0.3,0.2,0.5,0.4,0.5c0.3,0.1,0.6-0.2,0.6-0.5C134,10.1,134,9.7,134,9.2z"/>
		<path class="st2" d="M135.7,18.9c0,0.5,0,0.9,0,1.4c0,0.3-0.2,0.4-0.5,0.4c-0.3,0-0.5-0.2-0.5-0.4c0-0.9,0-1.9,0-2.8
			c0-0.3,0.2-0.4,0.5-0.4c0.3,0,0.5,0.2,0.5,0.4C135.7,18,135.7,18.4,135.7,18.9z"/>
		<path class="st2" d="M138,18.3c0-0.2,0-0.4,0-0.6c0-0.2,0.2-0.4,0.5-0.4c0.3,0,0.5,0.1,0.5,0.4c0,0,0,0.1,0,0.1c0,0.2,0,0.4,0,0.6
			C138.7,18.3,138.4,18.3,138,18.3z"/>
	</g>
</g>
</svg>
