<?xml version="1.0" encoding="utf-8"?>
<!-- Generator: Adobe Illustrator 17.0.0, SVG Export Plug-In . SVG Version: 6.00 Build 0)  -->
<!DOCTYPE svg PUBLIC "-//W3C//DTD SVG 1.1//EN" "http://www.w3.org/Graphics/SVG/1.1/DTD/svg11.dtd">
<svg version="1.1" id="Capa_1" xmlns="http://www.w3.org/2000/svg" xmlns:xlink="http://www.w3.org/1999/xlink" x="0px" y="0px"
	 width="30px" height="30px" viewBox="230.4 230.4 51.2 51.2" enable-background="new 230.4 230.4 51.2 51.2"
	 xml:space="preserve">
<circle fill="#464649" cx="256" cy="256" r="24"/>
<g>
	<path fill="#FFFFFF" d="M256,230.4c-14.139,0-25.6,11.461-25.6,25.6s11.461,25.6,25.6,25.6s25.6-11.461,25.6-25.6
		S270.139,230.4,256,230.4z M256,277.6c-11.93,0-21.6-9.67-21.6-21.6c0-11.93,9.67-21.6,21.6-21.6c11.93,0,21.6,9.67,21.6,21.6
		C277.6,267.93,267.93,277.6,256,277.6z"/>
	<path fill="#FFFFFF" d="M251.886,243.2l-1.016,3.95h-0.102l-1.066-3.95h-1.656l2.102,6.55v2.756h1.206v-2.938l2.202-6.369H251.886z
		 M257.141,247.505c0-0.558-0.181-1.105-0.5-1.425c-0.369-0.369-0.553-0.583-1.158-0.583c-0.664,0-0.848,0.252-1.242,0.583
		c-0.394,0.337-0.567,0.817-0.567,1.38v3.056c0,0.622,0.194,1.114,0.575,1.484c0.383,0.362,0.567,0.544,1.203,0.544
		c0.661,0,0.745-0.178,1.128-0.528c0.375-0.353,0.561-0.844,0.561-1.469L257.141,247.505L257.141,247.505z M261.795,245.503h-1.167
		v4.662c-0.137,0.161-0.747,0.986-0.856,0.986c-0.134,0-0.161-0.037-0.223-0.116c-0.061-0.077-0.092-0.2-0.092-0.373v-5.159h-1.169
		v5.661c0,0.439,0.037,1.078,0.272,1.316c0.159,0.161,0.663,0.191,1.12-0.159c0.352-0.267,0.641-0.641,0.948-1.198v1.241h1.167
		V245.503z M268.8,259.591c0-2.641-2.091-4.781-4.675-4.781h-16.248c-2.583,0-4.677,2.141-4.677,4.781v4.43
		c0,2.636,2.094,4.78,4.677,4.78h16.248c2.584,0,4.675-2.144,4.675-4.78V259.591z M262.358,266.458c-0.534,0-0.95-0.167-1.256-0.508
		c-0.305-0.328-0.459-0.792-0.459-1.381v-2.75c0-0.527,0.17-1.5,0.505-1.828c0.339-0.339,0.766-0.502,1.295-0.502
		c0.545,0,0.962,0.152,1.248,0.458c0.297,0.316,0.441,1.295,0.441,1.872v1.161h-2.269v1.548c0,0.325,0.042,0.545,0.12,0.672
		c0.08,0.123,0.208,0.188,0.403,0.188c0.194,0,0.328-0.053,0.406-0.159c0.077-0.106,0.12-0.333,0.12-0.7v-0.277h1.219v0.317
		c0,0.628-0.144,1.098-0.444,1.415C263.387,266.297,262.944,266.458,262.358,266.458z M262.913,262.028v-0.216
		c0-0.259-0.044-0.981-0.125-1.089c-0.077-0.111-0.214-0.167-0.395-0.167c-0.186,0-0.323,0.056-0.405,0.167
		c-0.081,0.108-0.125,0.83-0.125,1.089v0.216H262.913z M258.38,266.473c-0.242,0-0.456-0.05-0.642-0.145
		c-0.183-0.091-0.358-0.231-0.52-0.431v0.489h-1.23v-9.236h1.158v2.792c0.167-0.194,0.417-0.344,0.592-0.445
		c0.189-0.102,0.375-0.153,0.567-0.153c0.383,0,0.683,0.142,0.883,0.414c0.202,0.272,0.303,0.67,0.303,1.192v4.119
		c0,0.453-0.095,0.797-0.283,1.039C259.014,266.347,258.737,266.473,258.38,266.473z M258.344,261.019
		c0-0.214-0.152-0.377-0.233-0.491c-0.094-0.111-0.22-0.161-0.381-0.161c-0.091,0-0.173,0.019-0.261,0.061
		c-0.081,0.039-0.238,0.106-0.323,0.192v4.552c0.097,0.1,0.267,0.18,0.366,0.225c0.092,0.048,0.188,0.072,0.292,0.072
		c0.148,0,0.259-0.047,0.33-0.139c0.067-0.086,0.211-0.233,0.211-0.438L258.344,261.019L258.344,261.019L258.344,261.019z
		 M253.611,265.622c-0.225,0.25-0.458,0.523-0.703,0.656c-0.241,0.141-0.477,0.202-0.708,0.202c-0.281,0-0.494-0.092-0.636-0.283
		c-0.144-0.191-0.25-0.47-0.25-0.848v-5.844h1.18v5.413c0,0.148,0.027,0.255,0.077,0.323c0.053,0.064,0.136,0.1,0.25,0.1
		c0.088,0,0.275-0.044,0.413-0.136c0.137-0.086,0.336-0.202,0.45-0.333v-5.367h1.148v6.956h-1.22L253.611,265.622L253.611,265.622z
		 M250.18,266.455h-1.172v-8.142h-1.144v-1.163h3.497v1.163h-1.181V266.455L250.18,266.455z M255.412,251.281
		c-0.194,0-0.344-0.055-0.444-0.164c-0.106-0.108-0.158-0.262-0.158-0.464v-3.245c0-0.161,0.058-0.289,0.167-0.386
		c0.111-0.1,0.255-0.15,0.434-0.15c0.192,0,0.275,0.05,0.395,0.15c0.117,0.097,0.18,0.225,0.18,0.386v3.245
		c0,0.198-0.061,0.35-0.175,0.464C255.691,251.227,255.611,251.281,255.412,251.281z"/>
</g>
</svg>
